<svg width="192" height="60" viewBox="0 0 192 60" fill="none" xmlns="http://www.w3.org/2000/svg">
<g clip-path="url(#clip0_4308_16402)">
<path d="M58.385 11.2595C57.6668 11.2595 57.0321 10.9088 56.6312 10.3701L44.0122 14.8966C48.0459 14.7672 52.088 14.9885 56.0884 15.5522C56.4099 14.8799 57.0906 14.4122 57.8798 14.4122C58.0886 14.4122 58.289 14.454 58.4769 14.5124C58.5771 13.4226 58.6439 12.3244 58.6815 11.2261C58.5855 11.2387 58.4894 11.2554 58.385 11.2554V11.2595Z" fill="#5BC5F2"/>
<path d="M56.1803 9.042C56.1803 8.53256 56.3556 8.07323 56.6438 7.69742C49.0732 3.66366 40.6674 1.36283 32.0738 0.953613C32.0863 1.06218 32.0947 1.17493 32.0947 1.28767C32.0947 1.99755 31.8232 2.64478 31.3848 3.13334L38.5002 13.2845C38.8134 13.1593 39.1558 13.0883 39.5149 13.0883C40.4753 13.0883 41.3188 13.5852 41.8074 14.3368L56.1928 9.1798C56.1928 9.13387 56.1803 9.08793 56.1803 9.042Z" fill="#5BC5F2"/>
<path d="M14.59 20.7048C14.9449 20.4751 15.3667 20.3373 15.8218 20.3373C15.9805 20.3373 16.1392 20.3541 16.2895 20.3875L27.3719 3.18763C26.9042 2.69489 26.6161 2.02678 26.6161 1.29185C26.6161 1.1791 26.6244 1.06636 26.637 0.953613C18.2271 1.34196 10.0009 3.55509 2.55972 7.42182C2.95224 7.88115 3.19443 8.48245 3.19443 9.13804C3.19443 9.6099 3.06916 10.0484 2.8562 10.4325L14.5942 20.709L14.59 20.7048Z" fill="#5BC5F2"/>
<path d="M30.345 3.85986C30.036 3.98096 29.7019 4.04777 29.3554 4.04777C29.0297 4.04777 28.7207 3.98931 28.4284 3.88492L17.4128 20.9887C20.1395 19.7777 22.9456 18.7296 25.8227 17.8653C29.4264 16.7837 33.0968 16.0029 36.7965 15.5101C36.8675 14.9422 37.1055 14.4286 37.4646 14.0236L30.3408 3.85986H30.345Z" fill="#5BC5F2"/>
<path d="M13.5294 22.6506C13.5294 22.2957 13.6171 21.9616 13.759 21.6609L1.98347 11.3511C1.57843 11.6141 1.09404 11.7686 0.576251 11.7686C0.379991 11.7686 0.187908 11.7436 0 11.7018C0.221314 17.1011 1.18591 22.4251 2.8395 27.5237C3.17355 27.3441 3.54519 27.2314 3.95024 27.2314C4.51814 27.2314 5.03175 27.4402 5.44097 27.7742C8.02993 25.9578 10.74 24.3167 13.5502 22.8552C13.5419 22.7842 13.5294 22.7174 13.5294 22.6464V22.6506Z" fill="#5BC5F2"/>
<path d="M57.8798 18.4291C56.911 18.4291 56.1051 17.7359 55.9214 16.8131C51.3823 16.1742 46.7974 16.003 42.225 16.2661C42.154 16.7212 41.9744 17.1388 41.7155 17.4937L52.6559 30.664C52.919 30.5471 53.2113 30.4761 53.5203 30.4761C53.9379 30.4761 54.3262 30.6013 54.6519 30.8101C56.2137 26.8181 57.3369 22.6633 58.0009 18.4166C57.9591 18.4166 57.9174 18.4291 57.8756 18.4291H57.8798Z" fill="#748FC9"/>
<path d="M14.0096 24.0498C11.2953 25.4654 8.67299 27.0522 6.16755 28.8101C6.25942 29.0607 6.31788 29.3321 6.31788 29.616C6.31788 30.7518 5.52449 31.6997 4.46385 31.9378C5.47855 34.3806 6.64776 36.7565 7.99234 39.049C8.83166 40.4771 9.7378 41.8593 10.6899 43.208C11.0949 42.7863 11.6378 42.5023 12.2474 42.4355L14.7361 24.6762C14.4522 24.5217 14.2017 24.3087 14.0054 24.054L14.0096 24.0498Z" fill="#748FC9"/>
<path d="M30.3325 33.5285C30.7918 33.1777 31.3597 32.9689 31.9819 32.9689C32.1155 32.9689 32.2408 32.9814 32.3702 32.9981L37.9782 18.1242C37.5022 17.7985 37.1347 17.3225 36.9385 16.7671C33.314 17.2557 29.7187 18.0198 26.1902 19.0804C23.4091 19.9156 20.6949 20.9386 18.0558 22.1078C18.0976 22.2832 18.1268 22.4628 18.1268 22.6507C18.1268 22.9597 18.0642 23.252 17.9556 23.5234L30.3367 33.5285H30.3325Z" fill="#748FC9"/>
<path d="M51.4951 33.2739C45.8412 33.3449 40.2039 34.1091 34.7128 35.5497C34.7128 35.6082 34.7212 35.6624 34.7212 35.7209C34.7212 37.1156 33.6898 38.2681 32.3494 38.4477L30.2406 57.3011C30.8962 57.5808 31.4098 58.132 31.652 58.8127C39.4356 53.831 45.9831 47.0455 50.6725 39.0406C51.5034 37.6209 52.2676 36.1677 52.9691 34.6853C52.2676 34.4974 51.7164 33.9629 51.4951 33.2739Z" fill="#3C448D"/>
<path d="M29.6059 37.0991C28.587 37.4499 27.5765 37.8173 26.5743 38.2182C22.5072 39.8384 18.6238 41.8386 14.9575 44.1686C15.0452 44.4275 15.0953 44.7073 15.0953 44.9954C15.0953 45.9517 14.5775 46.7826 13.805 47.2294C17.5631 51.6808 21.9643 55.56 26.8666 58.721C27.2174 57.8483 28.0233 57.2136 28.9921 57.1217L31.0925 38.3393C30.4619 38.1222 29.9316 37.6795 29.6059 37.1075V37.0991Z" fill="#3C448D"/>
<path d="M40.7468 18.3081C40.3751 18.496 39.9617 18.6046 39.5191 18.6046C39.398 18.6046 39.2769 18.5921 39.1558 18.5795L33.5436 33.466C33.8735 33.6957 34.1449 33.9963 34.3496 34.3429C39.9534 32.8689 45.7075 32.088 51.4826 32.017C51.5369 31.8333 51.612 31.6621 51.7081 31.5034L40.7468 18.3123V18.3081Z" fill="#585FA8"/>
<path d="M29.2385 35.7252C29.2385 35.2868 29.3429 34.8734 29.5224 34.5059L17.1664 24.5176C16.8282 24.7639 16.419 24.9143 15.9763 24.9435L13.5001 42.6068C13.7883 42.7238 14.0472 42.895 14.2685 43.1037C18.0057 40.7278 21.9643 38.6858 26.1067 37.0364C27.1422 36.623 28.1904 36.2472 29.2426 35.8881C29.2426 35.8338 29.2343 35.7837 29.2343 35.7294L29.2385 35.7252Z" fill="#585FA8"/>
<path d="M78.7041 42.7144C78.4619 42.7771 77.4055 42.9691 76.1695 42.9691C74.2445 42.9691 71.6263 42.0379 71.6263 38.1253V35.7994C71.6263 31.8283 74.2403 30.9556 76.1695 30.9556C77.4055 30.9556 78.4661 31.1477 78.7041 31.2103C78.9129 31.2729 79.0549 31.3523 79.0549 31.5736V32.6342C79.0549 32.8221 78.9756 32.9683 78.7334 32.9683H78.7C78.1362 32.9223 77.0464 32.843 76.1945 32.843C74.8458 32.843 73.8686 33.557 73.8686 35.8036V38.1295C73.8686 40.3301 74.8458 41.0901 76.1945 41.0901C77.0464 41.0901 78.1362 41.0107 78.7 40.9648H78.7334C78.9714 40.9648 79.0549 41.1068 79.0549 41.2988V42.3595C79.0549 42.5808 78.9088 42.6601 78.7041 42.7228V42.7144Z" fill="#3C448D"/>
<path d="M89.2186 31.4448L86.78 36.9359C86.4752 37.6333 86.1536 37.9506 85.8029 38.0926V42.523C85.8029 42.6984 85.6734 42.8404 85.498 42.8404H83.8946C83.7192 42.8404 83.5897 42.6984 83.5897 42.523V38.0926C83.239 37.9506 82.9174 37.6333 82.6126 36.9359L80.1907 31.4448C80.174 31.3989 80.1573 31.3488 80.1573 31.3196C80.1573 31.1943 80.2533 31.0815 80.4162 31.0815H82.1992C82.3454 31.0815 82.4539 31.2068 82.5041 31.3363L84.4291 36.0548C84.5418 36.3221 84.6378 36.3722 84.7005 36.3722C84.7798 36.3722 84.8759 36.3263 84.9886 36.0548L86.9136 31.3363C86.9596 31.211 87.0723 31.0815 87.2184 31.0815H88.9848C89.1435 31.0815 89.2562 31.1943 89.2562 31.3196C89.2562 31.3655 89.2395 31.3989 89.2228 31.4448H89.2186Z" fill="#3C448D"/>
<path d="M94.4007 42.9699C93.1021 42.9699 92.1208 42.8906 91.6238 42.7945C91.0935 42.6985 90.8513 42.5273 90.8513 41.9385V31.9669C90.8513 31.399 91.0601 31.1902 91.5737 31.1108C91.9913 31.0482 93.0018 30.9521 94.2546 30.9521C97.1567 30.9521 99.1944 31.7748 99.1944 34.1675V34.4848C99.1944 35.5288 98.6975 36.4641 97.7162 36.8733C98.6934 37.2867 99.2738 38.0926 99.2738 39.2786V39.5458C99.2738 42.0638 97.3822 42.9657 94.3965 42.9657L94.4007 42.9699ZM97.0314 34.2969C97.0314 33.1903 96.309 32.7769 94.2546 32.7769C93.8704 32.7769 93.4194 32.7936 93.0812 32.8103V36.0215H95.1189C96.6097 36.0215 97.0272 35.3241 97.0272 34.5182V34.2969H97.0314ZM97.0941 39.312C97.0941 38.4434 96.6305 37.6333 95.1189 37.6333H93.0812V41.1159C93.4653 41.1159 94.0583 41.1493 94.3965 41.1493C96.451 41.1493 97.0941 40.6273 97.0941 39.5207V39.3161V39.312Z" fill="#3C448D"/>
<path d="M108.043 42.7488C107.529 42.8281 106.903 42.9701 104.995 42.9701C102.907 42.9701 101.286 42.4147 101.286 39.7256V34.2011C101.286 31.5119 102.907 30.9565 104.995 30.9565C106.903 30.9565 107.529 31.0985 108.043 31.1779C108.285 31.2113 108.364 31.2906 108.364 31.5119V32.5266C108.364 32.702 108.218 32.844 108.043 32.844H104.769C103.838 32.844 103.504 33.1613 103.504 34.2053V35.9131H107.851C108.026 35.9131 108.172 36.0551 108.172 36.2305V37.3705C108.172 37.5458 108.026 37.6878 107.851 37.6878H103.504V39.7297C103.504 40.7737 103.842 41.091 104.769 41.091H108.043C108.218 41.091 108.364 41.233 108.364 41.4084V42.4231C108.364 42.6444 108.285 42.7237 108.043 42.7572V42.7488Z" fill="#3C448D"/>
<path d="M119.004 42.8404H117.046C116.87 42.8404 116.803 42.6818 116.724 42.5231L114.415 38.2973H114.189C113.772 38.2973 113.129 38.2513 112.761 38.2346V42.5231C112.761 42.6985 112.632 42.8404 112.457 42.8404H110.853C110.678 42.8404 110.532 42.6985 110.532 42.5231V31.6328C110.532 31.3154 110.724 31.2069 111.045 31.1568C111.88 31.0315 113.02 30.9521 114.189 30.9521C116.662 30.9521 118.812 31.8207 118.812 34.5308V34.6727C118.812 36.3514 117.964 37.3953 116.645 37.9006L119.163 42.5231C119.196 42.569 119.196 42.6191 119.196 42.6484C119.196 42.7611 119.134 42.8363 119.004 42.8363V42.8404ZM116.595 34.5308C116.595 33.3448 115.793 32.8354 114.189 32.8354C113.851 32.8354 113.05 32.8688 112.761 32.898V36.4599C113.02 36.4766 113.918 36.5059 114.189 36.5059C115.843 36.5059 116.595 36.0632 116.595 34.6685V34.5266V34.5308Z" fill="#3C448D"/>
<path d="M123.823 42.9698C122.62 42.9698 121.752 42.8571 120.983 42.6859C120.821 42.6525 120.679 42.5439 120.679 42.3685V41.2286C120.679 41.0532 120.825 40.9279 120.983 40.9279H121.017C121.66 41.0073 123.263 41.0866 123.856 41.0866C125.284 41.0866 125.719 40.5813 125.719 39.6627C125.719 39.0447 125.414 38.7315 124.353 38.1135L122.236 36.8649C120.745 35.9922 120.345 35.0777 120.345 33.967C120.345 32.2257 121.372 30.9604 124.357 30.9604C125.418 30.9604 126.892 31.1191 127.439 31.2444C127.598 31.2778 127.727 31.3864 127.727 31.5451V32.7143C127.727 32.8729 127.614 32.9982 127.456 32.9982H127.422C126.362 32.9022 125.305 32.8395 124.261 32.8395C123.075 32.8395 122.574 33.2529 122.574 33.9628C122.574 34.4848 122.846 34.8021 123.89 35.37L125.815 36.4307C127.581 37.3952 128.045 38.41 128.045 39.6585C128.045 41.2578 127.034 42.9657 123.823 42.9657V42.9698Z" fill="#3C448D"/>
<path d="M136.726 42.7488C136.212 42.8281 135.586 42.9701 133.678 42.9701C131.59 42.9701 129.97 42.4147 129.97 39.7256V34.2011C129.97 31.5119 131.59 30.9565 133.678 30.9565C135.586 30.9565 136.212 31.0985 136.726 31.1779C136.968 31.2113 137.047 31.2906 137.047 31.5119V32.5266C137.047 32.702 136.901 32.844 136.726 32.844H133.452C132.521 32.844 132.187 33.1613 132.187 34.2053V35.9131H136.534C136.709 35.9131 136.855 36.0551 136.855 36.2305V37.3705C136.855 37.5458 136.709 37.6878 136.534 37.6878H132.187V39.7297C132.187 40.7737 132.525 41.091 133.452 41.091H136.726C136.901 41.091 137.047 41.233 137.047 41.4084V42.4231C137.047 42.6444 136.968 42.7237 136.726 42.7572V42.7488Z" fill="#3C448D"/>
<path d="M145.967 42.7154C145.725 42.778 144.668 42.9701 143.432 42.9701C141.507 42.9701 138.889 42.0389 138.889 38.1263V35.8004C138.889 31.8293 141.503 30.9565 143.432 30.9565C144.668 30.9565 145.725 31.1486 145.967 31.2113C146.176 31.2739 146.318 31.3532 146.318 31.5746V32.6352C146.318 32.8231 146.238 32.9692 145.996 32.9692H145.963C145.399 32.9233 144.309 32.844 143.461 32.844C142.113 32.844 141.135 33.558 141.135 35.8046V38.1304C141.135 40.3311 142.113 41.091 143.461 41.091C144.313 41.091 145.403 41.0117 145.963 40.9658H145.996C146.238 40.9658 146.318 41.1077 146.318 41.2998V42.3605C146.318 42.5818 146.171 42.6611 145.967 42.7237V42.7154Z" fill="#3C448D"/>
<path d="M152.581 42.9698C149.996 42.9698 148.167 41.8633 148.167 38.4893V31.3822C148.167 31.2068 148.314 31.0815 148.489 31.0815H150.076C150.251 31.0815 150.397 31.2068 150.397 31.3822V38.4893C150.397 40.2932 150.848 41.1492 152.577 41.1492C154.306 41.1492 154.761 40.2932 154.761 38.4893V31.3822C154.761 31.2068 154.907 31.0815 155.082 31.0815H156.669C156.845 31.0815 156.991 31.2068 156.991 31.3822V38.4893C156.991 41.8591 155.162 42.9698 152.577 42.9698H152.581Z" fill="#3C448D"/>
<path d="M167.798 42.8404H165.839C165.664 42.8404 165.597 42.6818 165.518 42.5231L163.208 38.2973H162.983C162.565 38.2973 161.922 38.2513 161.555 38.2346V42.5231C161.555 42.6985 161.425 42.8404 161.25 42.8404H159.646C159.471 42.8404 159.325 42.6985 159.325 42.5231V31.6328C159.325 31.3154 159.517 31.2069 159.839 31.1568C160.674 31.0315 161.814 30.9521 162.983 30.9521C165.455 30.9521 167.605 31.8207 167.605 34.5308V34.6727C167.605 36.3514 166.754 37.3953 165.438 37.9006L167.956 42.5231C167.99 42.569 167.99 42.6191 167.99 42.6484C167.99 42.7611 167.927 42.8363 167.798 42.8363V42.8404ZM165.392 34.5308C165.392 33.3448 164.591 32.8354 162.983 32.8354C162.645 32.8354 161.843 32.8688 161.555 32.898V36.4599C161.81 36.4766 162.711 36.5059 162.983 36.5059C164.636 36.5059 165.392 36.0632 165.392 34.6685V34.5266V34.5308Z" fill="#3C448D"/>
<path d="M171.714 42.8404H170.128C169.952 42.8404 169.806 42.6984 169.806 42.523V31.3822C169.806 31.2068 169.952 31.0815 170.128 31.0815H171.714C171.89 31.0815 172.036 31.2068 172.036 31.3822V42.523C172.036 42.6984 171.89 42.8404 171.714 42.8404Z" fill="#3C448D"/>
<path d="M181.807 32.9191H179.001V42.5274C179.001 42.7028 178.855 42.8448 178.679 42.8448H177.093C176.917 42.8448 176.771 42.7028 176.771 42.5274V32.9191H173.965C173.79 32.9191 173.644 32.8063 173.644 32.6351V31.3866C173.644 31.2112 173.79 31.0859 173.965 31.0859H181.811C181.987 31.0859 182.133 31.2112 182.133 31.3866V32.6351C182.133 32.8105 181.987 32.9191 181.811 32.9191H181.807Z" fill="#3C448D"/>
<path d="M191.967 31.4448L189.528 36.9359C189.223 37.6333 188.902 37.9506 188.551 38.0926V42.523C188.551 42.6984 188.421 42.8404 188.246 42.8404H186.643C186.467 42.8404 186.338 42.6984 186.338 42.523V38.0926C185.983 37.9506 185.665 37.6333 185.361 36.9359L182.939 31.4448C182.922 31.3989 182.905 31.3488 182.905 31.3196C182.905 31.1943 183.001 31.0815 183.164 31.0815H184.947C185.093 31.0815 185.206 31.2068 185.252 31.3363L187.177 36.0548C187.29 36.3221 187.386 36.3722 187.448 36.3722C187.528 36.3722 187.624 36.3263 187.737 36.0548L189.662 31.3363C189.712 31.211 189.82 31.0815 189.966 31.0815H191.733C191.896 31.0815 192.004 31.1943 192.004 31.3196C192.004 31.3655 191.988 31.3989 191.971 31.4448H191.967Z" fill="#3C448D"/>
<path d="M77.9066 25.0599C77.2927 25.1768 76.7248 25.2478 75.4805 25.2478C73.6807 25.2478 71.6221 24.2958 71.6221 20.7965V18.7921C71.6221 15.2637 73.6807 14.3408 75.4805 14.3408C76.3991 14.3408 77.2927 14.4703 77.9358 14.5705C78.0652 14.583 78.1696 14.6289 78.1696 14.7584V15.4933C78.1696 15.581 78.1404 15.652 77.9943 15.652H77.9483C77.4222 15.6102 76.3407 15.5226 75.493 15.5226C74.0607 15.5226 72.95 16.3452 72.95 18.7921V20.7965C72.95 23.2184 74.0607 24.0661 75.493 24.0661C76.324 24.0661 77.3763 23.9951 77.9024 23.9492H77.9609C78.1195 23.9492 78.1947 24.0202 78.1947 24.1788V24.7676C78.1947 24.9388 78.0652 25.0265 77.9024 25.0557L77.9066 25.0599Z" fill="#5BC5F2"/>
<path d="M85.807 25.1768C85.2517 25.2353 83.8194 25.2478 82.9592 25.2478C80.9131 25.2478 79.8483 24.4837 79.8483 22.567V17.0216C79.8483 15.105 80.9173 14.3408 82.9592 14.3408C83.8236 14.3408 85.1932 14.3701 85.807 14.4285C85.8947 14.441 85.9532 14.5454 85.9532 14.6289V15.3472C85.9532 15.4474 85.8947 15.5184 85.7945 15.5184H82.9759C81.4267 15.5184 81.1803 15.9234 81.1803 17.0175V19.0218H85.6651C85.8279 19.0218 85.9574 19.1513 85.9574 19.3099V19.857C85.9574 20.0156 85.8279 20.1451 85.6651 20.1451H81.1803V22.5628C81.1803 23.6569 81.4309 24.0619 82.9759 24.0619H85.7945C85.8947 24.0619 85.9532 24.1329 85.9532 24.2331V24.9681C85.9532 25.0557 85.8947 25.156 85.807 25.1685V25.1768Z" fill="#5BC5F2"/>
<path d="M95.1315 25.1474H94.2253C93.9915 25.1474 93.8328 25.0597 93.7576 24.9178L89.2437 16.4619C89.227 16.4327 89.2144 16.4202 89.1977 16.4202C89.1852 16.4202 89.1852 16.4327 89.1852 16.4619V24.876C89.1852 25.0222 89.0683 25.1516 88.9221 25.1516H88.1622C88.016 25.1516 87.8991 25.1224 87.8991 24.9804V14.8543C87.8991 14.6246 88.087 14.4492 88.325 14.4492H89.1268C89.536 14.4492 89.607 14.5202 89.7281 14.7373L94.2128 23.1514L94.242 23.1932C94.242 23.1932 94.2546 23.164 94.2546 23.1514V14.7248C94.2546 14.5787 94.3715 14.4492 94.5176 14.4492H95.2901C95.453 14.4492 95.5532 14.5787 95.5532 14.7248V24.7382C95.5532 24.9679 95.3611 25.1558 95.1273 25.1558L95.1315 25.1474Z" fill="#5BC5F2"/>
<path d="M104.03 15.5686H101.182V24.8596C101.182 25.0016 101.082 25.1477 100.919 25.1477H100.117C99.9711 25.1477 99.8542 25.0183 99.8542 24.8596V15.5686H97.0064C96.8477 15.5686 96.7141 15.4976 96.7141 15.3389V14.7042C96.7141 14.5622 96.8477 14.4453 97.0064 14.4453H104.034C104.193 14.4453 104.31 14.5455 104.31 14.7042V15.3389C104.31 15.4809 104.193 15.5686 104.034 15.5686H104.03Z" fill="#5BC5F2"/>
<path d="M113.191 25.1476H112.256C112.081 25.1476 111.993 25.1476 111.876 24.9597L109.262 20.667H108.882C108.402 20.667 108.051 20.6545 107.274 20.6253V24.8595C107.274 25.0015 107.174 25.1476 107.011 25.1476H106.222C106.076 25.1476 105.959 25.0182 105.959 24.8595V14.7751C105.959 14.5747 106.047 14.487 106.31 14.4577C106.936 14.3868 108.034 14.3408 108.882 14.3408C111.191 14.3408 112.974 15.105 112.974 17.4392V17.5394C112.974 19.1513 112.01 20.1033 110.682 20.4499L113.342 24.8303C113.371 24.872 113.388 24.9179 113.388 24.9597C113.388 25.0599 113.313 25.1476 113.2 25.1476H113.191ZM111.659 17.4392C111.659 15.9986 110.707 15.5226 108.882 15.5226C108.431 15.5226 107.625 15.5226 107.274 15.5643V19.5104C107.918 19.5229 108.548 19.5396 108.882 19.5396C110.678 19.5396 111.659 19.0928 111.659 17.5394V17.4392Z" fill="#5BC5F2"/>
<path d="M121.05 25.1768C120.495 25.2353 119.063 25.2478 118.202 25.2478C116.156 25.2478 115.091 24.4837 115.091 22.567V17.0216C115.091 15.105 116.156 14.3408 118.202 14.3408C119.063 14.3408 120.436 14.3701 121.05 14.4285C121.138 14.441 121.196 14.5454 121.196 14.6289V15.3472C121.196 15.4474 121.138 15.5184 121.033 15.5184H118.215C116.666 15.5184 116.415 15.9234 116.415 17.0175V19.0218H120.9C121.059 19.0218 121.192 19.1513 121.192 19.3099V19.857C121.192 20.0156 121.059 20.1451 120.9 20.1451H116.415V22.5628C116.415 23.6569 116.666 24.0619 118.215 24.0619H121.033C121.134 24.0619 121.196 24.1329 121.196 24.2331V24.9681C121.196 25.0557 121.138 25.156 121.05 25.1685V25.1768Z" fill="#5BC5F2"/>
<path d="M132.563 20.1493H128.078V24.8595C128.078 25.0182 127.949 25.1476 127.786 25.1476H127.038C126.88 25.1476 126.746 25.0182 126.746 24.8595V17.0216C126.746 15.105 127.811 14.3408 129.857 14.3408C130.717 14.3408 132.091 14.3701 132.705 14.4285C132.792 14.441 132.851 14.5454 132.851 14.6289V15.3472C132.851 15.4474 132.792 15.5184 132.688 15.5184H129.869C128.32 15.5184 128.07 15.9234 128.07 17.0175V19.0218H132.554C132.713 19.0218 132.847 19.1513 132.847 19.3099V19.857C132.847 20.0156 132.713 20.1451 132.554 20.1451L132.563 20.1493Z" fill="#5BC5F2"/>
<path d="M138.321 25.248C136.029 25.248 134.362 23.9243 134.362 20.7257V18.8675C134.362 15.6689 136.029 14.3452 138.321 14.3452C140.613 14.3452 142.267 15.6689 142.267 18.8675V20.7257C142.267 23.9243 140.613 25.248 138.321 25.248ZM140.922 18.8675C140.922 16.4456 139.929 15.5269 138.321 15.5269C136.713 15.5269 135.707 16.4498 135.707 18.8675V20.7257C135.707 23.1477 136.713 24.0663 138.321 24.0663C139.929 24.0663 140.922 23.1435 140.922 20.7257V18.8675Z" fill="#5BC5F2"/>
<path d="M151.512 25.1476H150.577C150.401 25.1476 150.314 25.1476 150.197 24.9597L147.583 20.667H147.203C146.723 20.667 146.372 20.6545 145.595 20.6253V24.8595C145.595 25.0015 145.495 25.1476 145.332 25.1476H144.543C144.397 25.1476 144.28 25.0182 144.28 24.8595V14.7751C144.28 14.5747 144.367 14.487 144.631 14.4577C145.257 14.3868 146.355 14.3408 147.203 14.3408C149.512 14.3408 151.295 15.105 151.295 17.4392V17.5394C151.295 19.1513 150.33 20.1033 149.003 20.4499L151.662 24.8303C151.692 24.872 151.708 24.9179 151.708 24.9597C151.708 25.0599 151.633 25.1476 151.52 25.1476H151.512ZM149.98 17.4392C149.98 15.9986 149.028 15.5226 147.203 15.5226C146.752 15.5226 145.946 15.5226 145.595 15.5643V19.5104C146.238 19.5229 146.869 19.5396 147.203 19.5396C148.998 19.5396 149.98 19.0928 149.98 17.5394V17.4392Z" fill="#5BC5F2"/>
<path d="M74.7497 59.0464C73.7851 59.0464 72.9207 59.0047 72.3654 58.917C72.0313 58.8711 71.8852 58.7416 71.8852 58.3825V48.7867C71.8852 48.4568 72.048 48.2814 72.3528 48.2522C72.8331 48.1937 73.7267 48.1353 74.6746 48.1353C76.9963 48.1353 78.9547 48.7407 78.9547 50.9163V51.146C78.9547 52.2108 78.3868 53.0334 77.393 53.4092C78.3993 53.7558 79.0131 54.6327 79.0131 55.7434V55.9898C79.0131 58.4075 77.0255 59.0423 74.7455 59.0423L74.7497 59.0464ZM77.6268 50.9205C77.6268 49.5383 76.4576 49.2502 74.6746 49.2502C74.1776 49.2502 73.639 49.2794 73.2297 49.2919V52.8664H75.4805C77.1758 52.8664 77.6268 52.0604 77.6268 51.1501V50.9205ZM77.6852 55.7476C77.6852 54.7955 77.205 53.9186 75.4805 53.9186H73.2297V57.8814C73.71 57.8939 74.2361 57.9399 74.7497 57.9399C76.562 57.9399 77.6852 57.5515 77.6852 55.994V55.7476Z" fill="#5BC5F2"/>
<path d="M86.8468 58.9757C86.2914 59.0341 84.8592 59.0466 83.999 59.0466C81.9528 59.0466 80.888 58.2825 80.888 56.3658V50.8205C80.888 48.9038 81.957 48.1396 83.999 48.1396C84.8633 48.1396 86.233 48.1689 86.8468 48.2273C86.9345 48.2399 86.993 48.3443 86.993 48.4278V49.146C86.993 49.2462 86.9345 49.3172 86.8343 49.3172H84.0157C82.4665 49.3172 82.2201 49.7223 82.2201 50.8163V52.8206H86.7048C86.8677 52.8206 86.9971 52.9501 86.9971 53.1088V53.6558C86.9971 53.8145 86.8677 53.9439 86.7048 53.9439H82.2201V56.3617C82.2201 57.4557 82.4706 57.8607 84.0157 57.8607H86.8343C86.9345 57.8607 86.993 57.9317 86.993 58.0361V58.7711C86.993 58.8587 86.9345 58.959 86.8468 58.9715V58.9757Z" fill="#5BC5F2"/>
<path d="M94.8976 58.9171C94.5176 58.9755 93.4194 59.0465 92.0498 59.0465C90.488 59.0465 88.9388 58.7417 88.9388 56.3657V48.5279C88.9388 48.3692 89.0683 48.2397 89.2311 48.2397H89.9786C90.1373 48.2397 90.2709 48.3692 90.2709 48.5279V56.3657C90.2709 57.4598 90.5214 57.8648 92.0706 57.8648H94.8893C94.9895 57.8648 95.0521 57.9358 95.0521 58.0402V58.7167C95.0521 58.8043 94.9936 58.9046 94.906 58.9213L94.8976 58.9171Z" fill="#5BC5F2"/>
<path d="M102.289 58.8292C101.575 58.9462 100.756 59.0464 99.3823 59.0464C97.5575 59.0464 95.5991 57.8647 95.5991 54.5658V52.6366C95.5991 49.1374 97.6452 48.1436 99.516 48.1436C100.873 48.1436 101.737 48.2605 102.293 48.344C102.422 48.3565 102.543 48.415 102.543 48.5611V49.2794C102.543 49.3796 102.485 49.4255 102.351 49.4255H102.293C101.433 49.3545 100.76 49.3253 99.516 49.3253C98.1589 49.3253 96.9312 50.0477 96.9312 52.6408V54.57C96.9312 56.946 98.0252 57.8855 99.3865 57.8855C100.276 57.8855 100.877 57.8271 101.228 57.7978V53.6806C101.228 53.5219 101.328 53.3924 101.491 53.3924H102.28C102.426 53.3924 102.556 53.5219 102.556 53.6806V58.5202C102.556 58.6789 102.456 58.8084 102.293 58.8376L102.289 58.8292Z" fill="#5BC5F2"/>
<path d="M106.043 58.9463H105.241C105.095 58.9463 104.978 58.8169 104.978 58.6582V48.5153C104.978 48.3692 105.078 48.2397 105.241 48.2397H106.043C106.189 48.2397 106.306 48.3567 106.306 48.5153V58.6582C106.306 58.8043 106.205 58.9463 106.043 58.9463Z" fill="#5BC5F2"/>
<path d="M112.431 59.0465C110.064 59.0465 108.69 57.8063 108.69 55.0545V48.5153C108.69 48.3692 108.807 48.2397 108.966 48.2397H109.755C109.901 48.2397 110.03 48.3567 110.03 48.5153V55.0545C110.03 56.9127 110.615 57.9233 112.427 57.9233C114.24 57.9233 114.824 56.9294 114.824 55.0545V48.5153C114.824 48.3692 114.941 48.2397 115.1 48.2397H115.889C116.035 48.2397 116.165 48.3567 116.165 48.5153V55.0545C116.165 57.8063 114.791 59.0465 112.423 59.0465H112.431Z" fill="#5BC5F2"/>
<path d="M126.967 58.946H126.249C126.09 58.946 125.957 58.8166 125.957 58.6579V50.1144C125.957 50.0852 125.957 50.0726 125.94 50.0726C125.94 50.0726 125.93 50.0824 125.911 50.1019L123.823 54.3653C123.677 54.6534 123.531 54.7828 123.167 54.7828H122.495C122.128 54.7828 121.981 54.6534 121.839 54.3653L119.752 50.1019C119.74 50.0824 119.731 50.0726 119.722 50.0726C119.722 50.0726 119.706 50.0852 119.706 50.1144V58.6579C119.706 58.8166 119.576 58.946 119.413 58.946H118.695C118.536 58.946 118.403 58.8166 118.403 58.6579V48.6612C118.403 48.4316 118.591 48.2437 118.829 48.2437H119.777C120.04 48.2437 120.157 48.3021 120.244 48.49L122.654 53.4299C122.712 53.5594 122.754 53.5886 122.829 53.5886C122.904 53.5886 122.946 53.5594 123.004 53.4299L125.414 48.49C125.502 48.3021 125.618 48.2437 125.882 48.2437H126.829C127.063 48.2437 127.255 48.4316 127.255 48.6612V58.6579C127.255 58.8166 127.126 58.946 126.963 58.946H126.967Z" fill="#5BC5F2"/>
</g>
<defs>
<clipPath id="clip0_4308_16402">
<rect width="192" height="58.0927" fill="white" transform="translate(0 0.953613)"/>
</clipPath>
</defs>
</svg>
